<svg width="15" height="15" viewBox="0 0 15 15" fill="none" xmlns="http://www.w3.org/2000/svg">
<path d="M10.7203 9.43384H10.0427L9.80261 9.20228C10.6431 8.22459 11.1491 6.95531 11.1491 5.57454C11.1491 2.49568 8.6534 0 5.57454 0C2.49568 0 0 2.49568 0 5.57454C0 8.6534 2.49568 11.1491 5.57454 11.1491C6.95531 11.1491 8.22459 10.6431 9.20228 9.80261L9.43384 10.0427V10.7203L13.7219 14.9998L14.9998 13.7219L10.7203 9.43384ZM5.57454 9.43384C3.43906 9.43384 1.71524 7.71002 1.71524 5.57454C1.71524 3.43906 3.43906 1.71524 5.57454 1.71524C7.71002 1.71524 9.43384 3.43906 9.43384 5.57454C9.43384 7.71002 7.71002 9.43384 5.57454 9.43384Z" fill="black" fill-opacity="0.87"/>
<path d="M10.7203 9.43384H10.0427L9.80261 9.20228C10.6431 8.22459 11.1491 6.95531 11.1491 5.57454C11.1491 2.49568 8.6534 0 5.57454 0C2.49568 0 0 2.49568 0 5.57454C0 8.6534 2.49568 11.1491 5.57454 11.1491C6.95531 11.1491 8.22459 10.6431 9.20228 9.80261L9.43384 10.0427V10.7203L13.7219 14.9998L14.9998 13.7219L10.7203 9.43384ZM5.57454 9.43384C3.43906 9.43384 1.71524 7.71002 1.71524 5.57454C1.71524 3.43906 3.43906 1.71524 5.57454 1.71524C7.71002 1.71524 9.43384 3.43906 9.43384 5.57454C9.43384 7.71002 7.71002 9.43384 5.57454 9.43384Z" fill="black" fill-opacity="0.2"/>
</svg>
